<svg version="1.1" id="Layer_1" xmlns="http://www.w3.org/2000/svg" xmlns:xlink="http://www.w3.org/1999/xlink" x="0px" y="0px"
	 width="100%" viewBox="0 0 163 282" enable-background="new 0 0 163 282" xml:space="preserve">
<path fill="#000000" opacity="1.000000" stroke="none" 
	d="
M1.000000,109.000000 
	C1.000000,72.666679 1.000000,36.833355 1.000000,1.000024 
	C55.333309,1.000016 109.666618,1.000016 163.999939,1.000008 
	C163.999969,94.999947 163.999969,188.999893 163.999985,282.999878 
	C109.666740,282.999939 55.333477,282.999939 1.000107,282.999969 
	C1.000000,225.166672 1.000000,167.333328 1.000000,109.000000 
M112.001633,90.013184 
	C112.001633,90.013184 112.074066,90.018967 111.556999,89.318916 
	C101.043030,89.268524 90.529068,89.218124 79.083969,89.035667 
	C71.017441,89.026932 62.950550,88.980759 54.884846,89.058289 
	C53.909924,89.067657 52.941418,89.745308 51.838982,90.924408 
	C51.563122,93.726578 51.051353,96.528404 51.047195,99.330978 
	C50.994453,134.892181 50.980850,170.453568 51.042194,206.014755 
	C51.056023,214.029419 53.417545,221.444672 58.281898,227.825195 
	C63.696911,234.928024 69.427338,241.791229 75.052452,248.732834 
	C80.462471,255.408966 83.581665,255.230942 88.937195,248.336975 
	C93.994759,241.826538 99.296646,235.506546 104.425697,229.050858 
	C112.348495,219.078827 120.175163,209.030167 128.135498,199.088409 
	C130.067474,196.675537 132.362000,194.552963 134.489792,192.296890 
	C136.487869,201.832596 133.625702,209.585846 128.849197,216.431030 
	C122.029076,226.204910 114.575745,235.538971 107.334618,245.016373 
	C101.672211,252.427475 95.772263,259.662537 90.288177,267.201569 
	C88.294228,269.942688 87.409317,273.633575 91.172783,275.782928 
	C97.261612,279.260284 107.935646,276.439331 112.261177,270.784088 
	C120.624924,259.849243 129.012253,248.931259 137.505219,238.096756 
	C145.985107,227.278976 154.032211,216.011185 155.287308,201.970062 
	C156.380280,189.742569 155.772186,177.359344 155.778900,165.044861 
	C155.779480,163.980728 154.755142,162.916016 153.815125,161.090958 
	C147.847015,167.262238 142.651855,172.978287 137.090134,178.312103 
	C126.263542,188.694992 115.199310,198.829605 104.295364,209.132492 
	C96.359596,216.630829 88.556160,224.269165 80.627144,231.774734 
	C77.139000,235.076630 74.432388,234.691116 71.928085,229.861923 
	C71.918869,209.282120 71.909653,188.702301 72.230499,167.506744 
	C77.130722,157.807739 87.049377,157.580536 92.100052,168.127548 
	C92.063026,177.440506 91.994843,186.753586 92.034691,196.066208 
	C92.038910,197.053207 92.676697,198.037521 93.330734,199.621338 
	C95.327614,202.511597 97.950737,202.044556 100.249794,200.429123 
	C106.673424,195.915680 112.002586,190.516327 113.253990,181.890594 
	C113.174202,181.580460 113.094406,181.270340 113.004265,180.434509 
	C113.001167,180.259262 112.998070,180.084030 113.790199,179.560715 
	C113.824409,160.415695 113.858620,141.270676 113.768768,121.351158 
	C113.442986,119.812675 113.117210,118.274200 112.845276,115.838120 
	C113.133713,107.952766 113.469254,100.068398 113.632927,92.180458 
	C113.648178,91.445442 112.575127,90.687859 112.001633,90.013184 
M9.048125,160.944824 
	C9.032010,165.433990 8.884718,169.927734 9.041701,174.410843 
	C9.165048,177.933365 9.664211,181.442719 10.010228,185.900040 
	C10.013790,187.899094 10.154855,189.908920 9.998975,191.895462 
	C8.841787,206.642670 13.295106,219.719818 21.848263,231.528061 
	C30.091845,242.908844 38.511402,254.162094 46.768608,265.533142 
	C52.162971,272.961731 58.056210,278.873657 68.541801,276.837128 
	C74.689156,275.643188 76.644157,272.415710 72.935143,267.298401 
	C63.652016,254.490463 54.610661,241.467316 44.632198,229.214676 
	C34.803162,217.145523 28.509962,204.299835 29.911924,188.349594 
	C30.152391,185.613770 29.335804,182.785034 29.638144,179.432739 
	C29.760046,178.616043 29.988317,177.799362 29.988453,176.982651 
	C29.993065,149.229446 29.987993,121.476204 29.921932,93.723129 
	C29.919039,92.508125 29.328703,91.294518 28.271931,89.931252 
	C23.592083,89.978004 18.903351,89.877579 14.237672,90.159126 
	C12.794510,90.246208 11.414062,91.372581 9.277910,92.485748 
	C9.238131,114.995552 9.198351,137.505356 9.048125,160.944824 
M134.139069,90.499306 
	C134.094009,113.132278 134.039261,135.765244 134.041931,158.398224 
	C134.042023,159.242020 134.601227,160.085739 135.486588,160.954437 
	C135.682327,160.953781 135.878067,160.953110 136.842896,160.973740 
	C145.644012,159.019012 150.081818,152.224091 153.947952,145.066818 
	C155.021881,143.078690 154.691498,140.332016 155.743195,137.495575 
	C155.793549,122.700203 155.843887,107.904839 155.757965,92.407852 
	C154.290756,91.416206 152.846237,89.621246 151.352234,89.579056 
	C146.261017,89.435318 141.152374,89.909157 135.470062,90.089859 
	C135.275986,90.086380 135.081924,90.082901 134.139069,90.499306 
M42.969139,95.996559 
	C42.944645,81.367332 42.920151,66.738113 43.073788,51.315777 
	C45.541187,34.525124 54.500000,22.664423 70.899437,15.863470 
	C72.540802,15.685918 74.179329,15.474483 75.824013,15.336448 
	C84.839912,14.579755 93.996666,14.297840 101.553299,20.068722 
	C106.550354,23.884897 111.312416,28.473827 114.820618,33.639748 
	C118.125496,38.506279 119.650253,44.581707 121.269623,50.605663 
	C121.110413,56.204086 120.757362,61.805916 120.855698,67.399811 
	C120.929184,71.580528 121.585098,75.751007 121.986870,80.872398 
	C121.992134,85.370621 121.783714,89.883141 122.083351,94.361664 
	C122.261086,97.018066 120.461617,101.634972 124.749313,101.645454 
	C129.156372,101.656227 127.847267,96.952438 127.899162,94.079865 
	C128.069626,84.644279 128.128387,75.200142 127.915611,65.766373 
	C127.763237,59.010395 127.790146,52.135788 126.535820,45.542641 
	C123.763611,30.971087 115.382454,20.141954 102.062027,13.583350 
	C91.759293,8.510566 80.774971,8.765660 69.061096,11.041771 
	C67.072151,11.874998 64.991920,12.540840 63.108734,13.567970 
	C48.230782,21.682728 38.168919,33.065731 37.242527,51.485397 
	C37.042938,64.032906 36.728287,76.580292 36.715126,89.127998 
	C36.711266,92.806671 37.563705,96.486244 38.154430,100.923103 
	C42.732063,103.005386 43.078461,102.713402 42.969139,95.996559 
M5.176706,233.421432 
	C5.120057,245.796616 5.042979,258.171783 5.051385,270.546936 
	C5.051964,271.398499 5.690970,272.249603 6.252802,273.653320 
	C7.138660,274.434479 8.024518,275.215607 9.187905,276.688507 
	C14.631876,276.861450 20.079432,277.240265 25.518744,277.145569 
	C30.321209,277.061981 35.114479,276.450317 40.176609,275.402802 
	C40.159653,273.792725 40.731113,271.833527 40.020130,270.635223 
	C37.448212,266.300507 34.682575,262.033600 31.555710,258.085052 
	C25.081568,249.909531 17.980804,242.207352 11.864088,233.783112 
	C9.459910,230.471939 8.260783,230.754501 5.176706,233.421432 
M154.784409,275.946808 
	C155.855576,274.647522 156.926758,273.348206 158.790298,271.959473 
	C158.851074,269.585907 158.959290,267.212463 158.964172,264.838776 
	C158.982910,255.738159 159.013443,246.636993 158.922348,237.537201 
	C158.907089,236.011902 158.311264,234.492401 157.648590,232.405701 
	C156.344818,232.527237 154.453629,232.137985 153.832077,232.852768 
	C149.635056,237.679337 145.702957,242.736526 141.692505,247.725006 
	C135.717300,255.157425 129.623596,262.500916 123.890488,270.115784 
	C122.848564,271.499695 123.292160,274.002045 123.384766,276.800232 
	C132.953430,276.868042 142.522079,276.956299 152.090775,276.958893 
	C152.748672,276.959076 153.406738,276.318817 154.784409,275.946808 
z"/>
<path fill="#182F30" opacity="1.000000" stroke="none" 
	d="
M92.156433,167.217697 
	C87.049377,157.580536 77.130722,157.807739 71.804138,168.131668 
	C71.252525,169.404526 71.018372,170.052368 71.017876,170.700394 
	C71.003525,189.617371 70.999130,208.534378 71.051720,227.451248 
	C71.054794,228.556107 71.548920,229.659607 71.814529,230.763733 
	C74.432388,234.691116 77.139000,235.076630 80.627144,231.774734 
	C88.556160,224.269165 96.359596,216.630829 104.295364,209.132492 
	C115.199310,198.829605 126.263542,188.694992 137.090134,178.312103 
	C142.651855,172.978287 147.847015,167.262238 153.815125,161.090958 
	C154.755142,162.916016 155.779480,163.980728 155.778900,165.044861 
	C155.772186,177.359344 156.380280,189.742569 155.287308,201.970062 
	C154.032211,216.011185 145.985107,227.278976 137.505219,238.096756 
	C129.012253,248.931259 120.624924,259.849243 112.261177,270.784088 
	C107.935646,276.439331 97.261612,279.260284 91.172783,275.782928 
	C87.409317,273.633575 88.294228,269.942688 90.288177,267.201569 
	C95.772263,259.662537 101.672211,252.427475 107.334618,245.016373 
	C114.575745,235.538971 122.029076,226.204910 128.849197,216.431030 
	C133.625702,209.585846 136.487869,201.832596 134.489792,192.296890 
	C132.362000,194.552963 130.067474,196.675537 128.135498,199.088409 
	C120.175163,209.030167 112.348495,219.078827 104.425697,229.050858 
	C99.296646,235.506546 93.994759,241.826538 88.937195,248.336975 
	C83.581665,255.230942 80.462471,255.408966 75.052452,248.732834 
	C69.427338,241.791229 63.696911,234.928024 58.281898,227.825195 
	C53.417545,221.444672 51.056023,214.029419 51.042194,206.014755 
	C50.980850,170.453568 50.994453,134.892181 51.047195,99.330978 
	C51.051353,96.528404 51.563122,93.726578 52.371880,90.474495 
	C61.944870,89.960632 70.984962,89.896683 80.490120,89.878845 
	C91.328148,89.956291 101.701111,89.987633 112.074066,90.018967 
	C112.074066,90.018967 112.001633,90.013184 112.012924,90.449402 
	C112.279945,99.502319 112.535690,108.119019 112.791435,116.735718 
	C113.117210,118.274200 113.442986,119.812675 113.528000,122.006653 
	C113.145149,125.785240 113.003082,128.908340 112.709091,132.406281 
	C112.650795,137.175919 112.744415,141.570709 112.901619,146.427551 
	C112.922066,150.938232 112.878937,154.986847 112.686867,159.415344 
	C112.641022,166.190231 112.744110,172.585220 112.902405,179.209457 
	C112.957596,179.438690 112.994980,179.908783 112.994980,179.908783 
	C112.998070,180.084030 113.001167,180.259262 113.029984,181.007233 
	C113.071762,181.786179 113.087830,181.992416 113.103897,182.198669 
	C112.002586,190.516327 106.673424,195.915680 100.249794,200.429123 
	C97.950737,202.044556 95.327614,202.511597 93.180176,198.852310 
	C93.019943,192.987442 93.116219,187.888565 92.971107,182.796585 
	C92.823029,177.600098 92.437828,172.410385 92.156433,167.217697 
z"/>
<path fill="#182E2F" opacity="1.000000" stroke="none" 
	d="
M10.004901,92.023117 
	C11.414062,91.372581 12.794510,90.246208 14.237672,90.159126 
	C18.903351,89.877579 23.592083,89.978004 28.636812,90.468140 
	C29.003635,120.669762 29.005579,150.334488 29.007519,179.999222 
	C29.335804,182.785034 30.152391,185.613770 29.911924,188.349594 
	C28.509962,204.299835 34.803162,217.145523 44.632198,229.214676 
	C54.610661,241.467316 63.652016,254.490463 72.935143,267.298401 
	C76.644157,272.415710 74.689156,275.643188 68.541801,276.837128 
	C58.056210,278.873657 52.162971,272.961731 46.768608,265.533142 
	C38.511402,254.162094 30.091845,242.908844 21.848263,231.528061 
	C13.295106,219.719818 8.841787,206.642670 9.998975,191.895462 
	C10.154855,189.908920 10.013790,187.899094 10.008881,184.963135 
	C9.952145,176.026321 9.896757,168.026443 9.895031,159.558884 
	C9.967428,136.735184 9.986164,114.379150 10.004901,92.023117 
z"/>
<path fill="#192E30" opacity="1.000000" stroke="none" 
	d="
M155.005402,137.933350 
	C154.691498,140.332016 155.021881,143.078690 153.947952,145.066818 
	C150.081818,152.224091 145.644012,159.019012 136.544144,160.653473 
	C135.888016,158.224213 135.530640,156.115250 135.109711,153.671539 
	C135.091064,152.886871 135.135956,152.436935 135.325363,151.603500 
	C135.649612,138.107544 135.880630,124.995392 135.965790,111.882294 
	C135.982819,109.262985 135.443237,106.640060 135.092102,103.680573 
	C135.067612,102.886650 135.111328,102.430962 135.234924,101.786209 
	C135.261765,101.073227 135.208755,100.549301 135.086685,99.610100 
	C135.058212,97.795326 135.098785,96.395836 135.285324,94.672531 
	C135.637665,92.948235 135.844025,91.547752 136.050385,90.147270 
	C141.152374,89.909157 146.261017,89.435318 151.352234,89.579056 
	C152.846237,89.621246 154.290756,91.416206 155.561340,93.072243 
	C155.244949,108.468872 155.125168,123.201111 155.005402,137.933350 
z"/>
<path fill="#192E2F" opacity="1.000000" stroke="none" 
	d="
M123.049973,275.988068 
	C123.292160,274.002045 122.848564,271.499695 123.890488,270.115784 
	C129.623596,262.500916 135.717300,255.157425 141.692505,247.725006 
	C145.702957,242.736526 149.635056,237.679337 153.832077,232.852768 
	C154.453629,232.137985 156.344818,232.527237 157.813049,233.158615 
	C157.984314,246.623993 157.991119,259.336456 157.997940,272.048920 
	C156.926758,273.348206 155.855576,274.647522 153.951965,275.951691 
	C143.096344,275.967072 133.073151,275.977570 123.049973,275.988068 
z"/>
<path fill="#192F30" opacity="1.000000" stroke="none" 
	d="
M8.910376,275.996765 
	C8.024518,275.215607 7.138660,274.434479 6.143292,272.901428 
	C6.013113,259.121155 5.992443,246.092819 5.971772,233.064468 
	C8.260783,230.754501 9.459910,230.471939 11.864088,233.783112 
	C17.980804,242.207352 25.081568,249.909531 31.555710,258.085052 
	C34.682575,262.033600 37.448212,266.300507 40.020130,270.635223 
	C40.731113,271.833527 40.159653,273.792725 39.582649,275.708435 
	C28.962585,276.008301 18.936480,276.002533 8.910376,275.996765 
z"/>
<path fill="#1E312F" opacity="1.000000" stroke="none" 
	d="
M69.748695,10.873706 
	C80.774971,8.765660 91.759293,8.510566 102.062027,13.583350 
	C115.382454,20.141954 123.763611,30.971087 126.535820,45.542641 
	C127.790146,52.135788 127.763237,59.010395 127.915611,65.766373 
	C128.128387,75.200142 128.069626,84.644279 127.899162,94.079865 
	C127.847267,96.952438 129.156372,101.656227 124.749313,101.645454 
	C120.461617,101.634972 122.261086,97.018066 122.083351,94.361664 
	C121.783714,89.883141 121.992134,85.370621 121.982086,79.935135 
	C121.970909,69.373680 121.964516,59.749493 121.958130,50.125309 
	C119.650253,44.581707 118.125496,38.506279 114.820618,33.639748 
	C111.312416,28.473827 106.550354,23.884897 101.553299,20.068722 
	C93.996666,14.297840 84.839912,14.579755 75.824013,15.336448 
	C74.179329,15.474483 72.540802,15.685918 70.593704,15.562547 
	C70.108215,13.798985 69.928459,12.336345 69.748695,10.873706 
z"/>
<path fill="#1C302D" opacity="1.000000" stroke="none" 
	d="
M69.404892,10.957739 
	C69.928459,12.336345 70.108215,13.798985 70.165604,15.532962 
	C54.500000,22.664423 45.541187,34.525124 42.822575,52.078373 
	C42.379902,65.257668 42.138180,77.673981 42.042664,90.091423 
	C42.025181,92.364777 42.602501,94.642715 42.905262,96.918533 
	C43.078461,102.713402 42.732063,103.005386 38.070580,100.063995 
	C37.985451,83.152412 37.984173,67.099930 37.982891,51.047451 
	C38.168919,33.065731 48.230782,21.682728 63.108734,13.567970 
	C64.991920,12.540840 67.072151,11.874998 69.404892,10.957739 
z"/>
<path fill="#454F49" opacity="1.000000" stroke="none" 
	d="
M29.322832,179.715973 
	C29.005579,150.334488 29.003635,120.669762 29.006849,90.542648 
	C29.328703,91.294518 29.919039,92.508125 29.921932,93.723129 
	C29.987993,121.476204 29.993065,149.229446 29.988453,176.982651 
	C29.988317,177.799362 29.760046,178.616043 29.322832,179.715973 
z"/>
<path fill="#ABADA7" opacity="1.000000" stroke="none" 
	d="
M135.155045,101.975281 
	C135.111328,102.430962 135.067612,102.886650 135.027924,104.144455 
	C135.081589,120.626717 135.131226,136.306854 135.180847,151.986984 
	C135.135956,152.436935 135.091064,152.886871 135.047577,154.102173 
	C134.999298,156.888184 134.949585,158.908844 134.899887,160.929504 
	C134.601227,160.085739 134.042023,159.242020 134.041931,158.398224 
	C134.039261,135.765244 134.094009,113.132278 134.561676,90.697296 
	C135.035980,92.262299 135.087662,93.629326 135.139343,94.996346 
	C135.098785,96.395836 135.058212,97.795326 135.022552,99.932884 
	C135.069977,101.105728 135.112503,101.540504 135.155045,101.975281 
z"/>
<path fill="#5F6562" opacity="1.000000" stroke="none" 
	d="
M9.641405,92.254433 
	C9.986164,114.379150 9.967428,136.735184 9.724360,159.555359 
	C9.500027,160.019516 9.158571,160.015152 9.158571,160.015152 
	C9.198351,137.505356 9.238131,114.995552 9.641405,92.254433 
z"/>
<path fill="#717B77" opacity="1.000000" stroke="none" 
	d="
M71.871307,230.312836 
	C71.548920,229.659607 71.054794,228.556107 71.051720,227.451248 
	C70.999130,208.534378 71.003525,189.617371 71.017876,170.700394 
	C71.018372,170.052368 71.252525,169.404526 71.639099,168.439545 
	C71.909653,188.702301 71.918869,209.282120 71.871307,230.312836 
z"/>
<path fill="#89928A" opacity="1.000000" stroke="none" 
	d="
M113.392593,179.734741 
	C112.994980,179.908783 112.957596,179.438690 112.957558,178.744553 
	C112.916946,171.712097 112.876373,165.373795 112.835800,159.035477 
	C112.878937,154.986847 112.922066,150.938232 112.959381,145.968094 
	C112.922707,140.708206 112.891861,136.369812 112.861015,132.031433 
	C113.003082,128.908340 113.145149,125.785240 113.590027,122.393898 
	C113.858620,141.270676 113.824409,160.415695 113.392593,179.734741 
z"/>
<path fill="#737B77" opacity="1.000000" stroke="none" 
	d="
M37.612709,51.266426 
	C37.984173,67.099930 37.985451,83.152412 38.005203,99.685150 
	C37.563705,96.486244 36.711266,92.806671 36.715126,89.127998 
	C36.728287,76.580292 37.042938,64.032906 37.612709,51.266426 
z"/>
<path fill="#6E7672" opacity="1.000000" stroke="none" 
	d="
M155.374298,137.714462 
	C155.125168,123.201111 155.244949,108.468872 155.629486,93.423050 
	C155.843887,107.904839 155.793549,122.700203 155.374298,137.714462 
z"/>
<path fill="#313A36" opacity="1.000000" stroke="none" 
	d="
M42.937202,96.457550 
	C42.602501,94.642715 42.025181,92.364777 42.042664,90.091423 
	C42.138180,77.673981 42.379902,65.257668 42.733513,52.474930 
	C42.920151,66.738113 42.944645,81.367332 42.937202,96.457550 
z"/>
<path fill="#595F5B" opacity="1.000000" stroke="none" 
	d="
M158.394119,272.004211 
	C157.991119,259.336456 157.984314,246.623993 157.980591,233.440887 
	C158.311264,234.492401 158.907089,236.011902 158.922348,237.537201 
	C159.013443,246.636993 158.982910,255.738159 158.964172,264.838776 
	C158.959290,267.212463 158.851074,269.585907 158.394119,272.004211 
z"/>
<path fill="#8F958E" opacity="1.000000" stroke="none" 
	d="
M5.574239,233.242950 
	C5.992443,246.092819 6.013113,259.121155 6.033429,272.625214 
	C5.690970,272.249603 5.051964,271.398499 5.051385,270.546936 
	C5.042979,258.171783 5.120057,245.796616 5.574239,233.242950 
z"/>
<path fill="#888E86" opacity="1.000000" stroke="none" 
	d="
M121.613876,50.365486 
	C121.964516,59.749493 121.970909,69.373680 121.979477,79.461952 
	C121.585098,75.751007 120.929184,71.580528 120.855698,67.399811 
	C120.757362,61.805916 121.110413,56.204086 121.613876,50.365486 
z"/>
<path fill="#7C837C" opacity="1.000000" stroke="none" 
	d="
M9.049140,276.342651 
	C18.936480,276.002533 28.962585,276.008301 39.450249,276.042969 
	C35.114479,276.450317 30.321209,277.061981 25.518744,277.145569 
	C20.079432,277.240265 14.631876,276.861450 9.049140,276.342651 
z"/>
<path fill="#A5A7A2" opacity="1.000000" stroke="none" 
	d="
M92.128242,167.672623 
	C92.437828,172.410385 92.823029,177.600098 92.971107,182.796585 
	C93.116219,187.888565 93.019943,192.987442 93.025085,198.553177 
	C92.676697,198.037521 92.038910,197.053207 92.034691,196.066208 
	C91.994843,186.753586 92.063026,177.440506 92.128242,167.672623 
z"/>
<path fill="#6E7370" opacity="1.000000" stroke="none" 
	d="
M111.815536,89.668945 
	C101.701111,89.987633 91.328148,89.956291 80.487595,89.712601 
	C80.019997,89.500244 80.015099,89.167725 80.015099,89.167725 
	C90.529068,89.218124 101.043030,89.268524 111.815536,89.668945 
z"/>
<path fill="#8D928C" opacity="1.000000" stroke="none" 
	d="
M123.217369,276.394165 
	C133.073151,275.977570 143.096344,275.967072 153.592133,275.966492 
	C153.406738,276.318817 152.748672,276.959076 152.090775,276.958893 
	C142.522079,276.956299 132.953430,276.868042 123.217369,276.394165 
z"/>
<path fill="#656A68" opacity="1.000000" stroke="none" 
	d="
M79.549530,89.101700 
	C80.015099,89.167725 80.019997,89.500244 80.022522,89.666489 
	C70.984962,89.896683 61.944870,89.960632 52.437359,90.068909 
	C52.941418,89.745308 53.909924,89.067657 54.884846,89.058289 
	C62.950550,88.980759 71.017441,89.026932 79.549530,89.101700 
z"/>
<path fill="#505852" opacity="1.000000" stroke="none" 
	d="
M112.818359,116.286919 
	C112.535690,108.119019 112.279945,99.502319 112.015800,90.413193 
	C112.575127,90.687859 113.648178,91.445442 113.632927,92.180458 
	C113.469254,100.068398 113.133713,107.952766 112.818359,116.286919 
z"/>
<path fill="#686E6C" opacity="1.000000" stroke="none" 
	d="
M9.103348,160.479980 
	C9.158571,160.015152 9.500027,160.019516 9.670698,160.023041 
	C9.896757,168.026443 9.952145,176.026321 10.001980,184.492065 
	C9.664211,181.442719 9.165048,177.933365 9.041701,174.410843 
	C8.884718,169.927734 9.032010,165.433990 9.103348,160.479980 
z"/>
<path fill="#1D2722" opacity="1.000000" stroke="none" 
	d="
M135.193237,160.941971 
	C134.949585,158.908844 134.999298,156.888184 135.111130,154.436890 
	C135.530640,156.115250 135.888016,158.224213 136.159607,160.642822 
	C135.878067,160.953110 135.682327,160.953781 135.193237,160.941971 
z"/>
<path fill="#1D2722" opacity="1.000000" stroke="none" 
	d="
M135.285324,94.672531 
	C135.087662,93.629326 135.035980,92.262299 134.936081,90.487350 
	C135.081924,90.082901 135.275986,90.086380 135.760223,90.118561 
	C135.844025,91.547752 135.637665,92.948235 135.285324,94.672531 
z"/>
<path fill="#192924" opacity="1.000000" stroke="none" 
	d="
M113.178940,182.044632 
	C113.087830,181.992416 113.071762,181.786179 113.035156,181.270081 
	C113.094406,181.270340 113.174202,181.580460 113.178940,182.044632 
z"/>
<path fill="#192924" opacity="1.000000" stroke="none" 
	d="
M112.686867,159.415344 
	C112.876373,165.373795 112.916946,171.712097 112.902359,178.515320 
	C112.744110,172.585220 112.641022,166.190231 112.686867,159.415344 
z"/>
<path fill="#192924" opacity="1.000000" stroke="none" 
	d="
M112.709091,132.406281 
	C112.891861,136.369812 112.922707,140.708206 112.895798,145.506042 
	C112.744415,141.570709 112.650795,137.175919 112.709091,132.406281 
z"/>
<path fill="#1D2722" opacity="1.000000" stroke="none" 
	d="
M135.325348,151.603500 
	C135.131226,136.306854 135.081589,120.626717 135.096130,104.482697 
	C135.443237,106.640060 135.982819,109.262985 135.965790,111.882294 
	C135.880630,124.995392 135.649612,138.107544 135.325348,151.603500 
z"/>
<path fill="#1D2722" opacity="1.000000" stroke="none" 
	d="
M135.234924,101.786209 
	C135.112503,101.540504 135.069977,101.105728 135.091583,100.348167 
	C135.208755,100.549301 135.261765,101.073227 135.234924,101.786209 
z"/>
</svg>